<svg id="Capa_1" data-name="Capa 1" xmlns="http://www.w3.org/2000/svg" viewBox="0 0 424.33 85.96"><defs><style>.cls-1{fill:#0081c6;}.cls-2{fill:#ffb349;}</style></defs><path class="cls-1" d="M86,18.67A10.87,10.87,0,0,1,78.29,16a8.79,8.79,0,0,1-2.92-6.7,8.79,8.79,0,0,1,2.92-6.71A10.87,10.87,0,0,1,86-.14,11.33,11.33,0,0,1,93.59,2.4a8.22,8.22,0,0,1,3,6.54,9.18,9.18,0,0,1-2.92,7A10.73,10.73,0,0,1,86,18.67ZM77.54,85V26.78H94.4V85Z" transform="translate(-0.16 0.14)"/><path class="cls-1" d="M145.44,25.92a27,27,0,0,1,12.37,2.75,20,20,0,0,1,8.6,8.44q3.14,5.67,3.14,14.54V85H152.68V54.24q0-7-3.08-10.38t-8.71-3.35a14.9,14.9,0,0,0-7.19,1.73,12.18,12.18,0,0,0-5,5.08A18.91,18.91,0,0,0,127,56.19V85H110.08V26.78h16.11V42.89l-3-4.87a21.52,21.52,0,0,1,9-9A27.65,27.65,0,0,1,145.44,25.92Z" transform="translate(-0.16 0.14)"/><path class="cls-1" d="M177.87,41.05v-13H218.2v13Zm9,43.9V25.48q0-9.94,5.84-15.78t16.65-5.84a32.48,32.48,0,0,1,7,.76,17.85,17.85,0,0,1,5.84,2.27l-4.43,12.32a11.55,11.55,0,0,0-3.14-1.51,12.27,12.27,0,0,0-3.68-.54,7.54,7.54,0,0,0-5.67,2.05c-1.34,1.37-2,3.53-2,6.49v5.41l.54,7.13V85Z" transform="translate(-0.16 0.14)"/><path class="cls-1" d="M253.45,85.81a33.78,33.78,0,0,1-16.38-3.89,28.76,28.76,0,0,1-15.41-26.05,29.26,29.26,0,0,1,4.11-15.52,28.86,28.86,0,0,1,11.3-10.6,34.32,34.32,0,0,1,16.38-3.83A34.91,34.91,0,0,1,270,29.75a28.8,28.8,0,0,1,11.35,10.6,29.26,29.26,0,0,1,4.11,15.52A28.51,28.51,0,0,1,270,81.92,34.36,34.36,0,0,1,253.45,85.81Zm0-13.84a15.06,15.06,0,0,0,7.62-1.89,13.85,13.85,0,0,0,5.3-5.57,17.82,17.82,0,0,0,2-8.64,17.45,17.45,0,0,0-2-8.65,14.07,14.07,0,0,0-5.3-5.46,14.85,14.85,0,0,0-7.52-1.9,15.1,15.1,0,0,0-7.56,1.9,13.94,13.94,0,0,0-5.36,5.46,17.45,17.45,0,0,0-2,8.65,17.82,17.82,0,0,0,2,8.64A13.72,13.72,0,0,0,246,70.08,14.91,14.91,0,0,0,253.45,72Z" transform="translate(-0.16 0.14)"/><path class="cls-2" d="M314.64,85.38a41,41,0,0,1-13.14-2A25.77,25.77,0,0,1,292,78.14l2.49-4.33a27.73,27.73,0,0,0,8.65,4.81,33.24,33.24,0,0,0,11.68,2q8.86,0,12.76-2.91A9.17,9.17,0,0,0,331.51,70a7.38,7.38,0,0,0-2-5.46,13.2,13.2,0,0,0-5.35-3.08,55.5,55.5,0,0,0-7.36-1.79c-2.66-.46-5.33-1-8-1.56a32.92,32.92,0,0,1-7.35-2.49,13.61,13.61,0,0,1-5.35-4.49,13,13,0,0,1-2-7.62,13.42,13.42,0,0,1,2.38-7.79,16.41,16.41,0,0,1,7.13-5.56,29.35,29.35,0,0,1,11.9-2.11,39,39,0,0,1,10.65,1.51,27,27,0,0,1,8.7,4l-2.49,4.33a23.11,23.11,0,0,0-8-3.9,34.53,34.53,0,0,0-9-1.18q-8.22,0-12.06,3a9.28,9.28,0,0,0-3.84,7.57,7.94,7.94,0,0,0,2,5.68,13.06,13.06,0,0,0,5.36,3.24,49.31,49.31,0,0,0,7.35,1.84c2.67.47,5.33,1,8,1.57a34.27,34.27,0,0,1,7.35,2.43,13.66,13.66,0,0,1,5.35,4.32,12.33,12.33,0,0,1,2,7.41A13.3,13.3,0,0,1,334.37,78a16.44,16.44,0,0,1-7.51,5.41A33.86,33.86,0,0,1,314.64,85.38Z" transform="translate(-0.16 0.14)"/><path class="cls-2" d="M374.11,85.38a28.22,28.22,0,0,1-14.44-3.67,27.18,27.18,0,0,1-10.05-10.17,29.12,29.12,0,0,1-3.73-14.81,29.09,29.09,0,0,1,3.73-14.87,27.46,27.46,0,0,1,10.05-10.11,30.32,30.32,0,0,1,28.92,0,26.9,26.9,0,0,1,10.06,10.11,29.47,29.47,0,0,1,3.68,14.87,29.5,29.5,0,0,1-3.68,14.81,26.63,26.63,0,0,1-10.06,10.17A28.47,28.47,0,0,1,374.11,85.38Zm0-4.86a23,23,0,0,0,11.67-3,20.78,20.78,0,0,0,8.11-8.38,25.68,25.68,0,0,0,2.92-12.43,25.64,25.64,0,0,0-2.92-12.49,20.88,20.88,0,0,0-8.11-8.32,23.08,23.08,0,0,0-11.67-3,22.83,22.83,0,0,0-11.63,3,21.39,21.39,0,0,0-8.1,8.32,25.22,25.22,0,0,0-3,12.49,25.26,25.26,0,0,0,3,12.43,21.29,21.29,0,0,0,8.1,8.38A22.73,22.73,0,0,0,374.11,80.52Z" transform="translate(-0.16 0.14)"/><path class="cls-2" d="M419.08,85V4.72h5.41V85Z" transform="translate(-0.16 0.14)"/><rect class="cls-2" x="32.77" y="54.86" width="30.34" height="30.34"/><rect class="cls-2" y="18.45" width="15.78" height="15.78"/><rect class="cls-2" x="30.34" y="31.8" width="15.78" height="15.78"/><rect class="cls-2" x="7.28" y="47.58" width="15.78" height="15.78"/></svg>